<svg width="45" height="45" viewBox="0 0 45 45" fill="none" xmlns="http://www.w3.org/2000/svg">
<mask id="mask0_446_916" style="mask-type:luminance" maskUnits="userSpaceOnUse" x="8" y="4" width="31" height="38">
<path fill-rule="evenodd" clip-rule="evenodd" d="M8.11719 4.43945H38.9151V41.3886H8.11719V4.43945Z" fill="white"/>
</mask>
<g mask="url(#mask0_446_916)">
<path fill-rule="evenodd" clip-rule="evenodd" d="M23.516 7.16223C21.9767 7.16223 12.2655 10.582 11.1455 11.5169C10.8151 11.849 10.8024 12.4263 10.8732 16.2908C10.9059 18.1532 10.9513 20.6835 10.9513 24.1868C10.9513 33.6276 21.3378 37.8189 23.5142 38.5903C25.6888 37.8152 36.0807 33.6004 36.0807 24.1868C36.0807 20.6799 36.1261 18.1477 36.1606 16.2853C36.2295 12.4244 36.2168 11.8472 35.8665 11.4987C34.7683 10.582 25.0553 7.16223 23.516 7.16223ZM23.5161 41.3893C23.3836 41.3893 23.2511 41.3712 23.1223 41.3313C22.5142 41.1479 8.22867 36.6789 8.22867 24.1868C8.22867 20.7071 8.18329 18.1895 8.15061 16.3416C8.06711 11.7256 8.04896 10.7636 9.24154 9.57279C10.6665 8.14424 21.4577 4.43945 23.5161 4.43945C25.5728 4.43945 36.364 8.14424 37.7926 9.57279C38.9833 10.7636 38.9652 11.7256 38.8817 16.3362C38.849 18.184 38.8036 20.7017 38.8036 24.1868C38.8036 36.6789 24.5181 41.1479 23.91 41.3313C23.7812 41.3712 23.6487 41.3893 23.5161 41.3893Z" fill="#9B51E0"/>
</g>
<path d="M21.6055 28.8701C21.6055 28.6264 21.6559 28.3953 21.7567 28.1768C21.8576 27.9499 21.9878 27.7566 22.1475 27.5969C22.3156 27.4289 22.5046 27.2986 22.7147 27.2062C22.9332 27.1053 23.1559 27.0549 23.3828 27.0549C23.6265 27.0549 23.8576 27.1053 24.0761 27.2062C24.2946 27.2986 24.4879 27.4289 24.656 27.5969C24.824 27.765 24.9543 27.9583 25.0467 28.1768C25.1476 28.3953 25.198 28.6264 25.198 28.8701C25.198 29.097 25.1476 29.3197 25.0467 29.5382C24.9543 29.7483 24.824 29.9374 24.656 30.1054C24.4963 30.2651 24.303 30.3954 24.0761 30.4962C23.8576 30.597 23.6265 30.6475 23.3828 30.6475C23.1475 30.6475 22.9206 30.6012 22.7021 30.5088C22.492 30.408 22.303 30.2777 22.1349 30.118C21.9752 29.95 21.845 29.7609 21.7441 29.5508C21.6517 29.3323 21.6055 29.1054 21.6055 28.8701ZM22.0214 24.8364V13.6301C22.0214 12.7729 22.45 12.3444 23.3072 12.3444C23.8198 12.3444 24.1896 12.4536 24.4165 12.6721C24.6434 12.8906 24.7568 13.2183 24.7568 13.6553V24.8364C24.7568 25.0969 24.6182 25.3028 24.3408 25.454C24.0635 25.5969 23.7358 25.6683 23.3576 25.6683C22.9963 25.6683 22.6811 25.5969 22.4122 25.454C22.1517 25.3112 22.0214 25.1053 22.0214 24.8364Z" fill="#9B51E0"/>
</svg>
