<svg width="42" height="42" viewBox="0 0 42 42" fill="none" xmlns="http://www.w3.org/2000/svg">
<path d="M41.548 18.8893C41.4266 19.4659 41.3399 20.0522 41.1784 20.6169C40.3818 23.4131 38.7323 25.5439 36.1734 26.9506C36.1149 26.9832 36.0564 27.0178 36 27.059C35.9728 27.0788 35.9471 27.1005 35.9231 27.1241C36.1517 27.6009 36.3848 28.0811 36.6134 28.5634C37.1922 29.787 37.1933 31.0063 36.5994 32.2299C36.543 32.3737 36.543 32.5336 36.5994 32.6775C37.5667 35.0499 38.2876 37.5155 38.7507 40.0354C38.8949 40.8147 38.6738 41.3718 38.0733 41.6351C37.3147 41.9679 36.5376 41.5008 36.3609 40.6261C36.1843 39.7515 36.0217 38.8508 35.7811 37.9827C35.4288 36.7125 35.0127 35.4618 34.6149 34.1699C32.599 34.896 30.8736 34.5525 29.5514 32.9398C28.2291 31.3271 28.4025 29.58 29.4094 27.8134C29.223 27.7516 29.0766 27.6985 28.9282 27.6519C27.1608 27.105 25.5852 26.0673 24.3848 24.6595C23.831 24.0189 23.8429 23.269 24.4065 22.7953C24.9484 22.3369 25.6952 22.4431 26.2284 23.0522C27.3057 24.3174 28.7794 25.1811 30.4097 25.5027C30.6471 25.5514 30.7782 25.5146 30.9115 25.3119C31.1933 24.8838 31.4903 24.4633 31.8024 24.0569C32.3866 23.2982 33.2634 23.2982 33.8552 24.0569C34.0357 24.2758 34.2015 24.5064 34.3515 24.7473C34.4946 24.9911 34.6398 24.9987 34.8728 24.8741C37.1001 23.6819 38.4115 21.8188 38.9534 19.3748C39.3739 17.4793 38.936 15.7397 37.9248 14.1552C36.8215 12.4265 35.6326 10.7521 34.4567 9.06891C32.9903 6.96091 31.6149 4.80413 30.7284 2.37207C30.6449 2.17344 30.5768 1.96873 30.5246 1.75972C30.3815 1.03682 30.7024 0.578371 31.5694 0.230469H31.8945C32.5145 0.426638 32.8071 0.88834 33.0271 1.47901C33.3427 2.32382 33.7101 3.14836 34.1272 3.94793C35.2609 6.11554 36.7608 8.05447 38.1752 10.0433C39.2384 11.54 40.2951 13.0454 40.94 14.7817C41.2001 15.4807 41.3486 16.221 41.548 16.9428V18.8893ZM32.9209 26.8228H32.741C32.2219 27.8079 31.6669 28.7736 31.1966 29.7859C30.8714 30.4871 31.1445 31.2523 31.771 31.7237C32.0757 31.9517 32.4461 32.0749 32.8266 32.0749C33.2072 32.0749 33.5775 31.9517 33.8822 31.7237C34.5141 31.2555 34.7916 30.4936 34.4643 29.7891C33.995 28.7812 33.439 27.8101 32.9209 26.8228Z" fill="#9B51E0"/>
<path d="M9.98926 0.230469C11.0308 0.648818 11.2584 1.15712 10.8834 2.22034C10.0348 4.62314 8.70495 6.76257 7.26023 8.83806C6.13741 10.4432 4.99291 12.0331 3.91344 13.6697C3.21221 14.7296 2.64863 15.8731 2.50449 17.1671C2.28772 19.1342 2.80795 20.9247 3.95245 22.5103C5.44052 24.5695 7.47591 25.6739 10.0413 25.6165C12.1645 25.5688 13.9181 24.6595 15.3108 23.0641C15.6359 22.6935 16.0022 22.4713 16.5084 22.5298C16.7255 22.548 16.9328 22.6281 17.1057 22.7607C17.2786 22.8933 17.4098 23.0727 17.4838 23.2776C17.5755 23.483 17.6054 23.7107 17.5698 23.9328C17.5342 24.155 17.4346 24.3619 17.2833 24.5283C15.7887 26.3047 13.9159 27.4546 11.6258 27.8957C11.2302 27.9727 10.8195 27.9813 10.426 28.067C10.2434 28.1091 10.082 28.2152 9.97083 28.3661C8.26965 31.0156 6.9664 33.9003 6.10273 36.9282C5.74832 38.1561 5.49579 39.4133 5.20858 40.6608C5.03192 41.4325 4.44992 41.8638 3.75086 41.711C3.05181 41.5582 2.67464 40.9296 2.81337 40.1698C3.58293 35.8708 5.10871 31.7422 7.31984 27.9759C7.35236 27.9196 7.37837 27.8589 7.39896 27.8177C6.69774 27.5121 5.97917 27.2704 5.33106 26.9051C2.27472 25.1851 0.570975 22.5428 0.0832613 19.0811C-0.241881 16.752 0.408403 14.6549 1.62985 12.7311C2.76352 10.9417 4.00881 9.22607 5.21942 7.48439C6.60995 5.48585 7.89968 3.43203 8.68327 1.1051C8.84801 0.617388 9.23926 0.411465 9.6652 0.230469H9.98926Z" fill="#9B51E0"/>
<path d="M22.0059 36.7384C22.0059 36.9552 22.0135 37.172 22.0059 37.3887C21.9966 37.702 21.8681 37.9999 21.6465 38.2215C21.4249 38.4431 21.127 38.5716 20.8137 38.5809C20.4999 38.5791 20.1982 38.4592 19.9687 38.2452C19.7392 38.0311 19.5986 37.7385 19.5749 37.4256C19.5505 36.9805 19.5505 36.5343 19.5749 36.0892C19.5939 35.7772 19.7329 35.4847 19.9629 35.2729C20.1928 35.0612 20.4958 34.9467 20.8083 34.9534C21.1221 34.9534 21.4232 35.0771 21.6464 35.2976C21.8695 35.5181 21.9968 35.8178 22.0005 36.1315C22.0135 36.3331 22.0059 36.5379 22.0059 36.7384Z" fill="#9B51E0"/>
<path d="M10.0074 19.9781C10.0069 20.2979 9.88363 20.6054 9.66297 20.8369C9.44231 21.0685 9.14113 21.2064 8.82167 21.2223C8.49439 21.221 8.18038 21.0927 7.94584 20.8645C7.7113 20.6362 7.57456 20.3258 7.56445 19.9986C7.56612 19.6788 7.69091 19.3719 7.91291 19.1416C8.13491 18.9113 8.43706 18.7754 8.75664 18.762C8.91896 18.7584 9.08037 18.7872 9.23147 18.8466C9.38257 18.906 9.52033 18.9949 9.63674 19.108C9.75314 19.2212 9.84586 19.3564 9.90949 19.5058C9.97312 19.6552 10.0064 19.8157 10.0074 19.9781Z" fill="#9B51E0"/>
<path d="M31.549 19.9762C31.553 19.7357 31.628 19.5018 31.7645 19.3037C31.901 19.1056 32.093 18.9523 32.3163 18.8629C32.5396 18.7735 32.7844 18.752 33.0199 18.8012C33.2554 18.8503 33.4711 18.9679 33.64 19.1392C33.8089 19.3105 33.9234 19.5279 33.9693 19.764C34.0151 20.0002 33.9902 20.2446 33.8977 20.4667C33.8052 20.6887 33.6492 20.8785 33.4492 21.0122C33.2492 21.1459 33.0142 21.2176 32.7737 21.2183C32.6114 21.2183 32.4507 21.1861 32.3009 21.1234C32.1512 21.0608 32.0154 20.969 31.9015 20.8535C31.7875 20.7379 31.6977 20.6008 31.6372 20.4502C31.5766 20.2997 31.5467 20.1385 31.549 19.9762Z" fill="#9B51E0"/>
</svg>
