<svg width="78" height="78" viewBox="0 0 78 78" fill="none" xmlns="http://www.w3.org/2000/svg">
<path d="M36.141 77.8496C34.7707 77.6504 33.4004 77.4842 32.032 77.2448C22.9334 75.6005 15.3713 71.2284 9.33294 64.2492C4.6265 58.8101 1.56257 52.5214 0.515676 45.4143C-1.58541 31.1634 2.7337 19.0904 13.5022 9.47837C19.1898 4.40105 25.948 1.45039 33.4936 0.381579C53.4101 -2.43936 72.4204 10.6659 76.8144 30.2481C77.2072 31.9911 77.3625 33.7889 77.6329 35.5593C77.6689 35.728 77.7165 35.894 77.7754 36.0562L77.7754 41.6798C77.6055 42.9259 77.4794 44.1829 77.2583 45.4198C75.709 54.1475 71.7096 61.5561 65.1999 67.567C59.7902 72.62 53.0221 75.9824 45.7274 77.2412C44.3644 77.4823 42.9869 77.6486 41.6166 77.8496L36.141 77.8496ZM73.8473 38.9557C73.8473 19.6312 58.259 3.99545 38.951 3.96804C34.3559 3.95314 29.8031 4.845 25.5533 6.59251C21.3035 8.34003 17.4402 10.9089 14.1848 14.1519C10.9295 17.3949 8.34589 21.2483 6.58218 25.4914C4.81847 29.7345 3.90927 34.2839 3.90665 38.879C3.87011 58.2072 19.5223 73.9014 38.8486 73.9178C43.4444 73.9277 47.9969 73.0303 52.2452 71.2773C56.4935 69.5242 60.3541 66.9499 63.6055 63.7019C66.8569 60.4538 69.4352 56.596 71.1927 52.3496C72.9502 48.1031 73.8523 43.5515 73.8473 38.9557Z" fill="white"/>
<path d="M38.7999 45.7722C40.4022 43.9451 41.8839 42.257 43.3675 40.5669C45.8522 37.7277 48.337 34.8885 50.8218 32.0493C51.7042 31.0408 52.8772 30.8745 53.7578 31.6145C54.6384 32.3544 54.6713 33.5913 53.7578 34.6346C49.362 39.6687 44.9637 44.7015 40.563 49.7332C39.5033 50.9445 38.2554 50.9481 37.1976 49.7332C32.7981 44.7015 28.4047 39.6644 24.0174 34.6218C23.6548 34.1789 23.4209 33.6448 23.3414 33.0779C23.2336 32.2832 23.8146 31.5323 24.5819 31.2765C24.9621 31.1284 25.3795 31.1052 25.7737 31.2103C26.1679 31.3155 26.5184 31.5434 26.7744 31.8611C28.2141 33.4957 29.6495 35.134 31.0807 36.7759C33.5801 39.6346 36.077 42.4969 38.5715 45.3629C38.6607 45.4916 38.7372 45.6287 38.7999 45.7722Z" fill="white"/>
</svg>
