<svg width="49" height="49" viewBox="0 0 49 49" fill="none" xmlns="http://www.w3.org/2000/svg">
<path fill-rule="evenodd" clip-rule="evenodd" d="M24.3352 6.03856C14.3273 6.03856 6.21435 14.1515 6.21435 24.1594C6.21435 34.1672 14.3273 42.2802 24.3352 42.2802C34.343 42.2802 42.456 34.1672 42.456 24.1594C42.456 14.1515 34.343 6.03856 24.3352 6.03856ZM2.1875 24.1594C2.1875 11.9276 12.1033 2.01172 24.3352 2.01172C36.567 2.01172 46.4828 11.9276 46.4828 24.1594C46.4828 36.3912 36.567 46.307 24.3352 46.307C12.1033 46.307 2.1875 36.3912 2.1875 24.1594Z" fill="#9B51E0"/>
<path fill-rule="evenodd" clip-rule="evenodd" d="M24.3357 10.0664C25.4477 10.0664 26.3491 10.9678 26.3491 12.0798V22.916L33.2898 26.3864C34.2844 26.8836 34.6875 28.0931 34.1902 29.0876C33.6929 30.0822 32.4835 30.4854 31.4889 29.9881L23.4353 25.9612C22.7531 25.6202 22.3223 24.923 22.3223 24.1604V12.0798C22.3223 10.9678 23.2237 10.0664 24.3357 10.0664Z" fill="#9B51E0"/>
</svg>
