<svg width="50" height="50" viewBox="0 0 50 50" fill="none" xmlns="http://www.w3.org/2000/svg">
<rect width="50" height="50" rx="25" fill="#665CAC"/>
<path d="M35.4525 14.7585C34.7432 14.1016 31.8848 12.0011 25.5186 11.9709C25.5186 11.9709 18.0073 11.5127 14.3456 14.9098C12.3075 16.9714 11.5897 19.9881 11.5171 23.7309C11.4402 27.4738 11.3419 34.4796 18.0244 36.3813H18.0286L18.0244 39.2814C18.0244 39.2814 17.9816 40.457 18.7464 40.6947C19.6693 40.9842 20.2119 40.0939 21.0964 39.1301C21.5792 38.6028 22.25 37.8248 22.7541 37.2327C27.3216 37.6217 30.838 36.7314 31.2354 36.6017C32.1582 36.2992 37.3795 35.6206 38.2254 28.6148C39.1014 21.3927 37.8024 16.8201 35.4525 14.7585ZM36.2259 28.0961C35.508 33.9481 31.2738 34.3198 30.4962 34.5704C30.1629 34.6784 27.0781 35.4564 23.1986 35.1971C23.1986 35.1971 20.306 38.7238 19.4044 39.6445C19.2634 39.787 19.0968 39.8476 18.9857 39.8173C18.8319 39.7784 18.7892 39.5925 18.7892 39.3203C18.7934 38.9313 18.8148 34.5013 18.8148 34.5013C18.8105 34.5013 18.8105 34.5013 18.8148 34.5013C13.1664 32.9152 13.4953 26.9464 13.5594 23.8217C13.6235 20.6969 14.2046 18.1383 15.9265 16.4182C19.0242 13.583 25.4032 14.0065 25.4032 14.0065C30.791 14.0324 33.3717 15.6705 33.9699 16.2193C35.9567 17.9438 36.9693 22.0627 36.2259 28.0961Z" fill="white"/>
<path fill-rule="evenodd" clip-rule="evenodd" d="M25.6245 21.2952C25.6352 21.0943 25.8046 20.94 26.0033 20.9507C26.747 20.9907 27.366 21.2177 27.8067 21.678C28.2458 22.1367 28.4604 22.7778 28.4972 23.5486C28.5069 23.7495 28.3536 23.9203 28.155 23.93C27.9563 23.9397 27.7875 23.7847 27.7779 23.5838C27.7464 22.924 27.5679 22.476 27.2893 22.1848C27.0121 21.8953 26.5885 21.7117 25.9651 21.6782C25.7665 21.6675 25.614 21.496 25.6245 21.2952Z" fill="white"/>
<path fill-rule="evenodd" clip-rule="evenodd" d="M25.0781 19.3365C25.0921 19.1359 25.2644 18.9848 25.4627 18.999C26.9786 19.1079 28.1958 19.6346 29.0822 20.6114C29.9634 21.5825 30.3794 22.7875 30.3477 24.2025C30.3431 24.4037 30.1783 24.563 29.9794 24.5585C29.7806 24.5539 29.6231 24.3871 29.6276 24.1859C29.6557 22.9386 29.294 21.9222 28.5516 21.104C27.8144 20.2916 26.7842 19.8243 25.4117 19.7256C25.2133 19.7114 25.0639 19.5372 25.0781 19.3365Z" fill="white"/>
<path fill-rule="evenodd" clip-rule="evenodd" d="M24.4443 17.4703C24.4456 17.2691 24.6079 17.1071 24.8068 17.1084C26.8973 17.1219 28.6677 17.8288 30.0847 19.2258C31.5131 20.6387 32.2224 22.5548 32.2401 24.9425C32.2416 25.1438 32.0816 25.308 31.8827 25.3096C31.6838 25.311 31.5214 25.1492 31.5199 24.948C31.5033 22.7114 30.8451 20.9969 29.5818 19.7473C28.3071 18.4907 26.7193 17.8493 24.8022 17.8369C24.6033 17.8356 24.4431 17.6714 24.4443 17.4703Z" fill="white"/>
<path d="M26.0564 28.4467C26.0564 28.4467 26.5649 28.4899 26.834 28.1485L27.3638 27.4742C27.6202 27.1372 28.2397 26.9254 28.8465 27.2668C29.184 27.4612 29.7906 27.8373 30.1667 28.1182C30.5683 28.4164 31.3929 29.1123 31.3929 29.1123C31.786 29.445 31.8758 29.9378 31.6108 30.4564C31.6108 30.4607 31.6066 30.465 31.6066 30.465C31.3332 30.9534 30.9657 31.4158 30.4999 31.8437C30.4957 31.848 30.4957 31.848 30.4914 31.8523C30.1111 32.1722 29.7351 32.3581 29.3677 32.4013C29.325 32.4099 29.2695 32.4142 29.2054 32.4099C29.043 32.4099 28.8849 32.3883 28.7268 32.3365L28.714 32.3192C28.1457 32.1592 27.2014 31.753 25.6248 30.8757C24.5995 30.3052 23.7491 29.7217 23.0314 29.1425C22.6511 28.84 22.2622 28.4943 21.8649 28.0966C21.8521 28.0836 21.8392 28.0706 21.8265 28.0577C21.8137 28.0447 21.8008 28.0318 21.788 28.0188C21.7752 28.0058 21.7624 27.9929 21.7496 27.9799C21.7367 27.967 21.724 27.954 21.7111 27.941C21.3181 27.5391 20.9762 27.1458 20.6772 26.7611C20.1046 26.035 19.5278 25.1707 18.9638 24.1376C18.0964 22.5428 17.6948 21.5878 17.5367 21.0129L17.5196 21C17.4684 20.84 17.4427 20.6801 17.447 20.5159C17.4427 20.4511 17.447 20.3949 17.4555 20.3516C17.4983 19.9799 17.682 19.5997 17.9981 19.215C18.0025 19.2107 18.0025 19.2107 18.0067 19.2064C18.4297 18.7352 18.8827 18.3635 19.3697 18.0869C19.374 18.0869 19.3783 18.0826 19.3783 18.0826C19.8909 17.8147 20.378 17.9054 20.707 18.303C20.7113 18.3073 21.3949 19.1371 21.6898 19.5434C21.9675 19.9281 22.3434 20.5375 22.5314 20.8789C22.869 21.4926 22.6596 22.1193 22.3264 22.3787L21.6599 22.9145C21.3223 23.1912 21.365 23.7011 21.365 23.7011C21.365 23.7011 22.3563 27.4915 26.0564 28.4467Z" fill="white"/>
</svg>
