<svg width="50" height="50" viewBox="0 0 50 50" fill="none" xmlns="http://www.w3.org/2000/svg">
<rect width="50" height="50" rx="25" fill="#2CA8DD"/>
<path d="M20.1553 36.1061C19.3509 36.1061 19.4876 35.7976 19.2101 35.0198L16.8447 27.1133L35.0526 16.1426" fill="#E1E1E1"/>
<path d="M20.1553 36.1066C20.776 36.1066 21.0503 35.8183 21.3967 35.4762L24.7073 32.2068L20.5778 29.6777" fill="#CDCDCD"/>
<path d="M20.5774 29.6785L30.5835 37.1867C31.7253 37.8266 32.5494 37.4953 32.8338 36.11L36.9068 16.6166C37.3238 14.9186 36.2695 14.1485 35.1772 14.6522L11.2607 24.0184C9.62813 24.6834 9.63765 25.6085 10.9631 26.0206L17.1006 27.9662L31.3096 18.8618C31.9804 18.4487 32.596 18.6708 32.0907 19.1262" fill="white"/>
</svg>
