<svg width="50" height="50" viewBox="0 0 50 50" fill="none" xmlns="http://www.w3.org/2000/svg">
<rect width="50" height="50" rx="25" fill="#4A76A8"/>
<path fill-rule="evenodd" clip-rule="evenodd" d="M37.8393 19.7362C38.0395 19.139 37.8393 18.7002 36.8865 18.7002H33.7358C32.9347 18.7002 32.5653 19.0793 32.365 19.4973C32.365 19.4973 30.7628 22.9909 28.4929 25.2601C27.7586 25.917 27.4248 26.126 27.0242 26.126C26.824 26.126 26.5341 25.917 26.5341 25.3199V19.7362C26.5341 19.0196 26.3016 18.7002 25.6339 18.7002H20.6827C20.1821 18.7002 19.881 19.0328 19.881 19.348C19.881 20.0273 21.0159 20.184 21.1329 22.0951V26.2455C21.1329 27.1554 20.9491 27.3204 20.5486 27.3204C19.4805 27.3204 16.8823 23.8113 15.3413 19.7959C15.0393 19.0155 14.7364 18.7002 13.9312 18.7002H10.7805C9.88025 18.7002 9.7002 19.0793 9.7002 19.4973C9.7002 20.2438 10.7684 23.9463 14.6738 28.8432C17.2774 32.1874 20.9456 34.0002 24.2836 34.0002C26.2864 34.0002 26.5342 33.5975 26.5342 32.904V30.3765C26.5342 29.5712 26.7239 29.4106 27.358 29.4106C27.8254 29.4106 28.6265 29.6195 30.4958 31.232C32.632 33.1429 32.9843 34.0002 34.1859 34.0002H37.3366C38.2369 34.0002 38.6869 33.5975 38.4273 32.803C38.1432 32.0111 37.1232 30.8621 35.7698 29.5001C35.0354 28.7238 33.9339 27.8878 33.6001 27.4696C33.1328 26.9322 33.2662 26.6934 33.6001 26.2156C33.6001 26.2156 37.4387 21.3784 37.8393 19.7362Z" fill="white"/>
</svg>
