<svg width="60" height="60" viewBox="0 0 60 60" fill="none" xmlns="http://www.w3.org/2000/svg">
<rect x="1.78906" y="1" width="57.2106" height="57.3339" rx="28.6053" stroke="#1C1D20" stroke-width="2"/>
<g clip-path="url(#clip0_111_4)">
<path d="M31.0657 22.2969C27.3111 22.2969 24.2559 25.3192 24.2559 29.0346C24.2559 32.7495 27.3107 35.7718 31.0657 35.7718C34.8203 35.7718 37.8755 32.7495 37.8755 29.0346C37.8755 25.3192 34.8203 22.2969 31.0657 22.2969ZM31.0657 33.2913C28.6783 33.2913 26.7363 31.3815 26.7363 29.0346C26.7363 26.6873 28.6783 24.7777 31.0657 24.7777C33.4527 24.7777 35.395 26.6873 35.395 29.0346C35.395 31.3819 33.4531 33.2913 31.0657 33.2913Z" fill="#1C1D20"/>
<path d="M36.5793 15.9883H25.5092C21.3688 15.9883 18 19.3567 18 23.4975V34.6692C18 38.8094 21.3684 42.1783 25.5092 42.1783H36.5793C40.7201 42.1783 44.0884 38.8094 44.0884 34.6692V23.4975C44.0884 19.3571 40.7201 15.9883 36.5793 15.9883ZM41.6033 34.6692C41.6033 37.4392 39.3495 39.6931 36.5793 39.6931H25.5092C22.739 39.6931 20.4851 37.4392 20.4851 34.6692V23.4975C20.4851 20.7273 22.739 18.4734 25.5092 18.4734H36.5793C39.3495 18.4734 41.6033 20.7273 41.6033 23.4975V34.6692Z" fill="#1C1D20"/>
<path d="M37.9968 23.6255C38.8818 23.6255 39.5991 22.9081 39.5991 22.0232C39.5991 21.1383 38.8818 20.4209 37.9968 20.4209C37.1119 20.4209 36.3945 21.1383 36.3945 22.0232C36.3945 22.9081 37.1119 23.6255 37.9968 23.6255Z" fill="#1C1D20"/>
</g>
<defs>
<clipPath id="clip0_111_4">
<rect width="27" height="27" fill="white" transform="translate(18 15.9883)"/>
</clipPath>
</defs>
</svg>
