<svg width="60" height="60" viewBox="0 0 60 60" fill="none" xmlns="http://www.w3.org/2000/svg">
<rect x="1" y="1" width="57.2106" height="57.3339" rx="28.6053" stroke="#1C1D20" stroke-width="2"/>
<path d="M30.5345 38.4871C30.5345 38.4871 31.149 38.4193 31.4637 38.0837C31.7518 37.7762 31.7418 37.1959 31.7418 37.1959C31.7418 37.1959 31.7035 34.4863 32.9707 34.0862C34.2196 33.6928 35.8232 36.7066 37.525 37.8655C38.8105 38.7417 39.7863 38.5499 39.7863 38.5499L44.334 38.4871C44.334 38.4871 46.7119 38.3416 45.5845 36.4851C45.4913 36.333 44.9268 35.1112 42.2042 32.6017C39.3517 29.9747 39.7347 30.3996 43.1683 25.8549C45.2598 23.0874 46.0957 21.3978 45.8343 20.6754C45.5862 19.9843 44.0476 20.1678 44.0476 20.1678L38.9287 20.1992C38.9287 20.1992 38.5491 20.148 38.2677 20.315C37.9929 20.4786 37.8147 20.8605 37.8147 20.8605C37.8147 20.8605 37.0054 23.0014 35.9247 24.8233C33.6451 28.6653 32.7342 28.8687 32.3612 28.6306C31.4937 28.0735 31.7101 26.3955 31.7101 25.2035C31.7101 21.4788 32.2796 19.9265 30.6028 19.5247C30.0466 19.3908 29.637 19.3032 28.2132 19.2883C26.3865 19.2701 24.8412 19.2949 23.9653 19.7198C23.3825 20.0025 22.9329 20.634 23.2076 20.6704C23.5457 20.715 24.3117 20.8754 24.718 21.4243C25.2425 22.1335 25.2242 23.7239 25.2242 23.7239C25.2242 23.7239 25.5256 28.1082 24.5198 28.6521C23.8304 29.0258 22.8846 28.2636 20.8514 24.777C19.8106 22.9915 19.0247 21.0176 19.0247 21.0176C19.0247 21.0176 18.8731 20.6489 18.6017 20.4505C18.2737 20.2108 17.8157 20.1364 17.8157 20.1364L12.9517 20.1678C12.9517 20.1678 12.2207 20.1877 11.9526 20.5034C11.7145 20.7828 11.9343 21.3631 11.9343 21.3631C11.9343 21.3631 15.7426 30.2095 20.0554 34.6682C24.0103 38.7549 28.4996 38.4871 28.4996 38.4871H30.5345Z" fill="#1C1D20"/>
</svg>
