<svg width="25" height="25" viewBox="0 0 25 25" fill="none" xmlns="http://www.w3.org/2000/svg">
<rect x="0.5" y="0.5" width="23.1274" height="23.1776" rx="11.5637" stroke="#9E9C9B"/>
<path d="M14.6001 14.7497L14.2094 15.3657C14.1314 15.4886 14.0283 15.5935 13.8924 15.6313C13.4472 15.7549 12.2652 15.8108 10.4656 13.9193C8.6661 12.0278 8.71921 10.7854 8.83686 10.3175C8.87277 10.1746 8.97258 10.0662 9.08956 9.98423L9.6756 9.57358C10.1119 9.26784 10.2298 8.6482 9.93894 8.18959L8.83211 6.44452C8.57821 6.04422 8.08876 5.89129 7.66805 6.0808L7.16875 6.30572C6.78946 6.47658 6.48006 6.78322 6.29551 7.17117C6.14132 7.49529 6.02182 7.83661 6.00563 8.19859C5.9546 9.33933 6.19258 12.1498 9.17088 15.2802C12.1492 18.4107 14.823 18.6608 15.9083 18.6072C16.2527 18.5901 16.5774 18.4645 16.8858 18.3025C17.2549 18.1085 17.5466 17.7833 17.7091 17.3846L17.9231 16.8598C18.1034 16.4176 17.9579 15.9031 17.5771 15.6363L15.9168 14.4729C15.4805 14.1672 14.891 14.2911 14.6001 14.7497Z" fill="#898989"/>
</svg>
