<svg width="60" height="60" viewBox="0 0 60 60" fill="none" xmlns="http://www.w3.org/2000/svg">
<rect x="1" y="1" width="57.2106" height="57.3339" rx="28.6053" stroke="#1C1D20" stroke-width="2"/>
<path d="M44.9865 28.6672C44.8492 24.7533 43.2569 21.0448 40.5406 18.3131C37.8244 15.5813 34.1935 14.0367 30.4031 14.0006C26.6128 13.9645 22.9549 15.4397 20.1904 18.1192C17.4259 20.7988 15.7676 24.4764 15.5606 28.387C15.5606 28.6065 15.5606 28.8541 15.5606 29.0503C15.5522 31.7974 16.2781 34.4935 17.6582 36.8416L15 44.9505L23.1374 42.2693C25.3728 43.5381 27.8886 44.1861 30.4388 44.1497C32.9891 44.1134 35.4866 43.3941 37.6873 42.0621C39.888 40.7301 41.7166 38.8309 42.9943 36.5503C44.2721 34.2696 44.9554 31.6854 44.9774 29.0503C44.9955 28.9242 44.991 28.798 44.9865 28.6672ZM30.2713 41.7461C27.8503 41.7487 25.4817 41.0179 23.4584 39.6442L18.7025 41.2043L20.2486 36.4912C18.7142 34.3344 17.8873 31.7271 17.8888 29.0503C17.8888 28.6345 17.9114 28.2235 17.9476 27.8218C18.2743 24.6587 19.729 21.7346 22.0281 19.6191C24.3273 17.5036 27.3063 16.3481 30.3849 16.3779C33.4635 16.4076 36.4211 17.6204 38.6816 19.7799C40.9421 21.9395 42.3436 24.8912 42.613 28.06C42.6356 28.387 42.6537 28.714 42.6537 29.0503C42.637 32.4287 41.3238 35.6622 39.0025 38.0415C36.6811 40.4208 33.541 41.7514 30.2713 41.7415V41.7461Z" fill="black"/>
<path d="M37.0162 32.0965C36.6545 31.9143 34.8778 31.0175 34.5478 30.896C34.2178 30.7746 33.9782 30.7092 33.7341 31.0782C33.4899 31.4472 32.8028 32.2833 32.5903 32.5309C32.3778 32.7784 32.1699 32.8065 31.8127 32.6243C30.7475 32.184 29.764 31.5566 28.9059 30.7699C28.1192 30.0226 27.443 29.1602 26.8986 28.2102C26.6907 27.8412 26.876 27.6403 27.0569 27.4535C27.2377 27.2666 27.4185 27.0237 27.5993 26.8089C27.6466 26.7525 27.6903 26.6933 27.7305 26.6314C27.8174 26.4812 27.8944 26.3252 27.961 26.1643C28.0093 26.0629 28.0317 25.9505 28.0262 25.8377C28.0207 25.7249 27.9873 25.6154 27.9294 25.5196C27.8435 25.3328 27.1201 23.5111 26.8172 22.7684C26.5144 22.0257 26.216 22.1518 26.008 22.1518C25.8001 22.1518 25.5559 22.1238 25.3163 22.1238C25.1334 22.129 24.9534 22.1731 24.7877 22.2535C24.622 22.3339 24.4741 22.4487 24.3534 22.5909C23.9447 22.9851 23.6208 23.4637 23.4027 23.9956C23.1847 24.5275 23.0773 25.1009 23.0876 25.6785C23.0918 26.1042 23.1542 26.5272 23.2729 26.935C23.5569 27.8612 23.9927 28.7302 24.5614 29.504C24.7422 29.7469 27.0614 33.6099 30.7277 35.1093C34.3941 36.6087 34.3986 36.0995 35.0587 36.0435C35.7187 35.9874 37.197 35.1513 37.4954 34.2825C37.7329 33.7317 37.8069 33.1205 37.7079 32.5262C37.6039 32.3767 37.3778 32.2833 37.0162 32.0965Z" fill="black"/>
</svg>
