<svg width="25" height="25" viewBox="0 0 25 25" fill="none" xmlns="http://www.w3.org/2000/svg">
<rect x="0.5" y="0.5" width="23.1274" height="23.1776" rx="11.5637" stroke="#9E9C9B"/>
<path fill-rule="evenodd" clip-rule="evenodd" d="M12.8816 18.5915C14.5101 17.4366 17.6271 14.8199 17.6271 11.711C17.6271 8.55691 15.0702 6 11.9161 6C8.76199 6 6.20508 8.55691 6.20508 11.711C6.20508 14.8199 9.32209 17.4366 10.9506 18.5915C11.5348 19.0058 12.2974 19.0058 12.8816 18.5915ZM11.9166 13.515C12.9126 13.515 13.72 12.7075 13.72 11.7115C13.72 10.7154 12.9126 9.908 11.9166 9.908C10.9205 9.908 10.1131 10.7154 10.1131 11.7115C10.1131 12.7075 10.9205 13.515 11.9166 13.515Z" fill="#9C9C9A"/>
</svg>
