<svg width="33" height="44" viewBox="0 0 33 44" fill="none" xmlns="http://www.w3.org/2000/svg">
<path d="M5.93143 43.3934C5.60834 43.0797 5.22043 42.8162 4.97577 42.4524C3.91032 40.8736 2.84278 39.2947 1.85993 37.6647C0.260189 35.0141 -0.299198 32.1346 0.149357 29.0595C0.53204 26.4403 1.62886 24.1651 3.3823 22.1932C4.53244 20.9019 5.28212 19.4349 5.47346 17.6972C5.63716 16.323 5.37705 14.9316 4.72796 13.7093C4.21458 12.7359 3.7493 11.7489 3.50986 10.6667C3.12165 8.90591 3.22363 7.07242 3.80471 5.36557C4.20622 4.13875 4.60807 2.91194 5.01027 1.68512C5.26435 0.919752 5.64599 0.639536 6.46049 0.639536C8.86533 0.639536 11.2764 0.623852 13.6834 0.656265C14.0534 0.664268 14.4092 0.800239 14.6903 1.04104C16.5901 2.88126 18.8235 4.10355 21.3527 4.84278C22.9159 5.2997 24.0712 6.27836 24.6881 7.81223C24.9376 8.41034 25.0661 9.05197 25.0661 9.70003C25.0661 10.3481 24.9376 10.9897 24.6881 11.5878C24.6421 11.7028 24.5919 11.8168 24.548 11.9203C30.1356 14.9609 33.1343 19.5531 32.4453 25.9771C31.7594 32.3698 27.8824 36.2312 21.8023 38.039C22.2388 39.2325 22.4936 40.4848 22.5583 41.7539C22.6001 42.5256 22.3492 43.0756 21.635 43.3892L5.93143 43.3934ZM19.9422 40.8892C19.5303 38.3683 18.332 36.3932 16.312 34.9221C14.8032 33.8253 13.0895 33.3412 11.2378 33.2868C10.9262 33.2536 10.6384 33.1051 10.4309 32.8704C10.2233 32.6358 10.1111 32.3319 10.1162 32.0187C10.1213 31.7055 10.2434 31.4055 10.4585 31.1777C10.6736 30.9499 10.9661 30.8109 11.2785 30.7879C13.2757 30.7719 15.2383 31.3093 16.9487 32.3406C18.2689 33.1226 19.4213 34.1581 20.3396 35.3874C20.4274 35.5034 20.6375 35.6216 20.7662 35.5965C26.1906 34.6272 30.1534 30.0455 30.0311 24.4088C29.9265 19.5499 27.5102 16.0964 23.0539 14.0983C22.9374 14.0416 22.8085 14.0156 22.6791 14.0225C22.5498 14.0295 22.4244 14.0692 22.3147 14.138C21.358 14.6399 20.3887 15.1209 19.4153 15.5914C18.7879 15.8977 18.1836 15.7649 17.803 15.2704C17.2959 14.6096 17.5018 13.7511 18.2892 13.3434C19.2375 12.853 20.2057 12.4023 21.153 11.9046C22.231 11.3432 22.7339 10.2756 22.4621 9.11503C22.2321 8.13113 21.5713 7.53097 20.6229 7.25598C17.9274 6.47284 15.4996 5.21605 13.422 3.30263C13.3086 3.20768 13.1662 3.1542 13.0184 3.15103C11.1677 3.14057 9.31703 3.15103 7.46634 3.13952C7.24573 3.13952 7.15267 3.21585 7.08993 3.42183C6.77626 4.41409 6.39985 5.38857 6.14891 6.39442C5.96037 7.15996 5.85313 7.94326 5.82896 8.7313C5.784 10.1031 6.32352 11.3212 6.94878 12.5174C8.32581 15.148 8.376 17.8603 7.33146 20.6133C6.78881 22.0416 5.79132 23.1656 4.87539 24.3575C2.1872 27.8602 1.73028 31.686 3.6667 35.6498C4.50316 37.3625 5.69513 38.8985 6.71039 40.5233C6.77082 40.6439 6.86593 40.7437 6.98349 40.8098C7.10105 40.8759 7.2357 40.9054 7.37015 40.8945C11.4051 40.8819 15.441 40.8861 19.4759 40.8861L19.9422 40.8892Z" fill="#9B51E0"/>
<path d="M19.9964 19.5274C20.6405 19.1635 21.2459 18.6826 21.936 18.4567C24.323 17.6767 26.8335 19.2242 27.3887 21.7357C27.8142 23.6585 27.2339 25.3346 25.9008 26.6645C24.2802 28.2831 22.5194 29.7626 20.8005 31.2797C20.5912 31.4616 20.3233 31.5617 20.0461 31.5617C19.7688 31.5617 19.5009 31.4616 19.2917 31.2797C17.5288 29.7689 15.6646 28.3667 14.1255 26.6123C13.4228 25.8113 12.8927 24.908 12.6616 23.8446C12.1054 21.2683 13.7344 18.7463 16.3034 18.303C17.6125 18.0782 18.7762 18.4734 19.7538 19.3789C19.8354 19.4542 19.9169 19.5295 19.9995 19.6037C20.0079 19.611 20.0257 19.6037 20.0382 19.61L19.9964 19.5274ZM19.9588 28.6951C20.445 28.2821 20.8297 27.983 21.1831 27.6495C22.2151 26.6802 23.2628 25.7256 24.2467 24.7093C24.5099 24.4383 24.7116 24.1138 24.8379 23.7577C24.9642 23.4017 25.0122 23.0226 24.9786 22.6464C24.9169 21.7806 24.3586 21.0257 23.6194 20.8427C22.8163 20.6451 22.1158 20.963 21.6327 21.7723C21.4736 22.0482 21.3372 22.3367 21.225 22.6349C21.0159 23.1733 20.6133 23.4713 20.0487 23.4713C19.4841 23.4713 19.0962 23.1733 18.8703 22.6349C18.7153 22.2511 18.5237 21.8831 18.2984 21.536C17.9397 21.0058 17.4149 20.7319 16.7656 20.7946C16.0336 20.8657 15.5433 21.285 15.2819 21.9646C14.8981 22.9611 15.0979 23.9084 15.7984 24.6392C17.1273 26.0299 18.5504 27.3337 19.9588 28.6951Z" fill="#9B51E0"/>
</svg>
